<svg width="399" height="62" viewBox="0 0 399 62" fill="none" xmlns="http://www.w3.org/2000/svg">
<path fill-rule="evenodd" clip-rule="evenodd" d="M127.112 10.504V24.232C127.112 25.384 126.92 26.152 126.536 26.536C126.152 26.856 125.384 27.016 124.232 27.016H114.632V7.72H124.232C125.384 7.72 126.152 7.912 126.536 8.296C126.92 8.616 127.112 9.352 127.112 10.504ZM127.112 36.616V51.4C127.112 52.552 126.92 53.32 126.536 53.704C126.152 54.024 125.384 54.184 124.232 54.184H114.632V33.832H124.232C125.384 33.832 126.152 34.024 126.536 34.408C126.92 34.728 127.112 35.464 127.112 36.616ZM126.824 0.903996H105.992V61H126.824C132.84 61 135.848 58.184 135.848 52.552V36.136C135.848 33.064 134.568 31.208 132.008 30.568C134.568 29.992 135.848 28.008 135.848 24.616V9.352C135.848 3.72 132.84 0.903996 126.824 0.903996ZM171.385 53.992H154.009V33.448H167.833V26.44H154.009V7.912H170.713V0.903996H145.273V61H171.385V53.992ZM197.859 47.08L200.26 61H208.995L197.572 0.903996H184.995L174.339 61H182.98L185.188 47.08H197.859ZM196.708 40.072H186.243L191.236 8.392L196.708 40.072ZM233.933 19.72H242.765V9.352C242.765 3.72 239.757 0.903996 233.741 0.903996H223.565C217.613 0.903996 214.637 3.72 214.637 9.352V52.552C214.637 58.248 217.613 61.096 223.565 61.096H233.741C239.757 61.096 242.765 58.248 242.765 52.552V42.376H233.933V51.496C233.933 52.648 233.741 53.416 233.357 53.8C233.037 54.12 232.301 54.28 231.149 54.28H226.253C225.101 54.28 224.333 54.12 223.949 53.8C223.565 53.416 223.373 52.648 223.373 51.496V10.504C223.373 9.352 223.565 8.616 223.949 8.296C224.333 7.912 225.101 7.72 226.253 7.72H231.149C232.301 7.72 233.037 7.912 233.357 8.296C233.741 8.616 233.933 9.352 233.933 10.504V19.72ZM281.353 0.903996H272.712V27.592H259.944V0.903996H251.305V61H259.944V34.6H272.712V61H281.353V0.903996ZM310.536 0.903996H299.88C293.864 0.903996 290.856 3.72 290.856 9.352V52.552C290.856 58.184 293.864 61 299.88 61H310.536C316.488 61 319.464 58.184 319.464 52.552V9.352C319.464 3.72 316.488 0.903996 310.536 0.903996ZM310.824 10.696V51.208C310.824 52.36 310.632 53.128 310.248 53.512C309.864 53.832 309.096 53.992 307.944 53.992H302.376C301.224 53.992 300.456 53.832 300.072 53.512C299.752 53.128 299.592 52.36 299.592 51.208V10.696C299.592 9.54399 299.752 8.80799 300.072 8.488C300.456 8.104 301.224 7.912 302.376 7.912H307.944C309.096 7.912 309.864 8.104 310.248 8.488C310.632 8.80799 310.824 9.54399 310.824 10.696ZM357.439 0.903996H348.703V51.208C348.703 52.36 348.511 53.128 348.127 53.512C347.807 53.832 347.039 53.992 345.823 53.992H340.351C339.199 53.992 338.431 53.832 338.047 53.512C337.663 53.128 337.471 52.36 337.471 51.208V0.903996H328.735V52.552C328.735 58.184 331.743 61 337.759 61H348.415C354.431 61 357.439 58.184 357.439 52.552V0.903996ZM375.819 61V36.712H380.523L389.548 61H398.859L389.355 36.52C393.643 35.816 395.788 33.032 395.788 28.168V9.352C395.788 3.72 392.811 0.903996 386.859 0.903996H367.18V61H375.819ZM375.819 29.8V7.912H384.267C385.419 7.912 386.188 8.104 386.572 8.488C386.956 8.80799 387.147 9.54399 387.147 10.696V27.016C387.147 28.168 386.956 28.936 386.572 29.32C386.188 29.64 385.419 29.8 384.267 29.8H375.819ZM73.5418 48.0892C75.8463 49.9303 78.851 51.1329 81.987 51.4892C83.1684 51.6229 84.0144 52.7216 83.9998 53.9094V58.6011C83.9998 59.9522 82.8913 61.0954 81.564 60.9767C77.4508 60.6055 73.4251 59.2544 70.0266 57.1461C62.0044 62.209 50.2628 62.2832 42.0218 57.1461C33.9996 62.209 22.258 62.2832 14.017 57.1461C10.6185 59.2989 6.63655 60.6203 2.43583 60.9915C1.10852 61.1103 0 59.967 0 58.6159V53.8351C0 52.6622 0.831393 51.6229 1.98367 51.5041C5.1488 51.1626 8.1389 49.9897 10.3997 48.1783C12.4125 46.56 15.3005 46.2185 17.2696 47.8814C22.856 52.5879 32.9056 52.6028 38.4483 48.1338C40.4465 46.5154 43.2908 46.2036 45.2598 47.8665C50.8754 52.6028 60.9834 52.6028 66.5114 48.0892C68.5534 46.4115 71.4852 46.4412 73.5418 48.0892ZM73.5418 26.7091C75.8463 28.5502 78.851 29.7528 81.987 30.1092C83.1684 30.2428 84.0144 31.3415 83.9998 32.5293V37.221C83.9998 38.5721 82.8913 39.7154 81.564 39.5966C77.4508 39.2254 73.4251 37.8743 70.0266 35.766C62.0044 40.8289 50.2628 40.9031 42.0218 35.766C33.9996 40.8289 22.258 40.9031 14.017 35.766C10.6185 37.9188 6.63655 39.2402 2.43583 39.6114C1.10852 39.7302 0 38.587 0 37.2359V32.455C0 31.2821 0.831393 30.2428 1.98367 30.124C5.1488 29.7825 8.1389 28.6096 10.3997 26.7982C12.4125 25.1799 15.3005 24.8384 17.2696 26.5013C22.856 31.2079 32.9056 31.2227 38.4483 26.7537C40.4465 25.1353 43.2908 24.8235 45.2598 26.4864C50.8754 31.2227 60.9834 31.2227 66.5114 26.7091C68.5534 25.0314 71.4852 25.0611 73.5418 26.7091ZM73.5418 5.32907C75.8463 7.17014 78.851 8.35792 81.987 8.7291C83.1684 8.86273 84.0144 9.96142 83.9998 11.1492V15.8409C83.9998 17.192 82.8913 18.3353 81.564 18.2165C77.4508 17.8453 73.4251 16.4942 70.0266 14.3859C62.0044 19.4488 50.2628 19.5231 42.0218 14.3859C33.9996 19.4488 22.258 19.5231 14.017 14.3859C10.6185 16.5388 6.63655 17.8602 2.43583 18.2314C1.10852 18.3501 0 17.2069 0 15.8558V11.075C0 9.90203 0.831393 8.86273 1.98367 8.74395C5.1488 8.40246 8.1389 7.22953 10.3997 5.41816C12.4125 3.7998 15.3005 3.45832 17.2696 5.12121C22.856 9.8278 32.9056 9.84265 38.4483 5.37362C40.4465 3.75526 43.2908 3.44347 45.2598 5.10637C50.8754 9.84264 60.9834 9.84264 66.5114 5.32907C68.5534 3.65133 71.4852 3.68103 73.5418 5.32907Z" fill="black"/>
</svg>
