<svg width="171" height="28" viewBox="0 0 171 28" fill="none" xmlns="http://www.w3.org/2000/svg">
<path fill-rule="evenodd" clip-rule="evenodd" d="M35.0199 20.8844C36.1173 21.7564 37.5481 22.3261 39.0414 22.4949C39.604 22.5582 40.0069 23.0786 39.9999 23.6413V25.8637C39.9999 26.5037 39.472 27.0452 38.84 26.9889C36.8813 26.8131 34.9643 26.1731 33.346 25.1744C29.5259 27.5727 23.9347 27.6078 20.0104 25.1744C16.1903 27.5727 10.599 27.6078 6.67475 25.1744C5.05642 26.1942 3.16026 26.8202 1.15992 26.996C0.527868 27.0522 0 26.5107 0 25.8707V23.6061C0 23.0505 0.395901 22.5582 0.944606 22.5019C2.45181 22.3402 3.87566 21.7846 4.95224 20.9266C5.91074 20.16 7.28597 19.9982 8.22363 20.7859C10.8838 23.0153 15.6694 23.0224 18.3087 20.9055C19.2602 20.1389 20.6146 19.9912 21.5523 20.7789C24.2264 23.0224 29.0397 23.0224 31.6721 20.8844C32.6445 20.0896 34.0406 20.1037 35.0199 20.8844ZM35.0199 10.757C36.1173 11.629 37.5481 12.1987 39.0414 12.3675C39.604 12.4308 40.0069 12.9512 39.9999 13.5139V15.7363C39.9999 16.3763 39.472 16.9178 38.84 16.8615C36.8813 16.6857 34.9643 16.0457 33.346 15.047C29.5259 17.4453 23.9347 17.4804 20.0104 15.047C16.1903 17.4453 10.599 17.4804 6.67475 15.047C5.05642 16.0668 3.16026 16.6927 1.15992 16.8686C0.527868 16.9248 0 16.3833 0 15.7433V13.4787C0 12.9231 0.395901 12.4308 0.944606 12.3745C2.45181 12.2128 3.87566 11.6572 4.95224 10.7992C5.91074 10.0326 7.28597 9.87082 8.22363 10.6585C10.8838 12.8879 15.6694 12.895 18.3087 10.7781C19.2602 10.0115 20.6146 9.86378 21.5523 10.6515C24.2264 12.895 29.0397 12.895 31.6721 10.757C32.6445 9.96224 34.0406 9.97631 35.0199 10.757ZM35.0199 0.629562C36.1173 1.50164 37.5481 2.06428 39.0414 2.2401C39.604 2.3034 40.0069 2.82383 39.9999 3.38647V5.60887C39.9999 6.24886 39.472 6.7904 38.84 6.73414C36.8813 6.55831 34.9643 5.91832 33.346 4.91964C29.5259 7.31787 23.9347 7.35303 20.0104 4.91964C16.1903 7.31787 10.599 7.35303 6.67475 4.91964C5.05642 5.93941 3.16026 6.56534 1.15992 6.74117C0.527868 6.79743 0 6.2559 0 5.6159V3.3513C0 2.7957 0.395901 2.3034 0.944606 2.24713C2.45181 2.08538 3.87566 1.52978 4.95224 0.671759C5.91074 -0.0948292 7.28597 -0.256586 8.22363 0.531101C10.8838 2.76054 15.6694 2.76757 18.3087 0.650661C19.2602 -0.115928 20.6146 -0.263619 21.5523 0.524068C24.2264 2.76757 29.0397 2.76757 31.6721 0.629562C32.6445 -0.165158 34.0406 -0.151093 35.0199 0.629562ZM56.88 5.95999V11.68C56.88 12.16 56.8 12.48 56.64 12.64C56.48 12.7733 56.16 12.84 55.68 12.84H51.68V4.79999H55.68C56.16 4.79999 56.48 4.87999 56.64 5.03999C56.8 5.17333 56.88 5.47999 56.88 5.95999ZM56.88 16.84V23C56.88 23.48 56.8 23.8 56.64 23.96C56.48 24.0933 56.16 24.16 55.68 24.16H51.68V15.68H55.68C56.16 15.68 56.48 15.76 56.64 15.92C56.8 16.0533 56.88 16.36 56.88 16.84ZM56.76 1.95999H48.08V27H56.76C59.2667 27 60.52 25.8267 60.52 23.48V16.64C60.52 15.36 59.9867 14.5867 58.92 14.32C59.9867 14.08 60.52 13.2533 60.52 11.84V5.47999C60.52 3.13332 59.2667 1.95999 56.76 1.95999ZM75.3272 24.08H68.0872V15.52H73.8472V12.6H68.0872V4.87999H75.0472V1.95999H64.4472V27H75.3272V24.08ZM86.3581 21.2L87.3581 27H90.9981L86.2381 1.95999H80.9981L76.5581 27H80.1581L81.0781 21.2H86.3581ZM85.8781 18.28H81.5181L83.5981 5.07999L85.8781 18.28ZM101.389 9.79999H105.069V5.47999C105.069 3.13332 103.815 1.95999 101.309 1.95999H97.0687C94.5888 1.95999 93.3487 3.13332 93.3487 5.47999V23.48C93.3487 25.8533 94.5888 27.04 97.0687 27.04H101.309C103.815 27.04 105.069 25.8533 105.069 23.48V19.24H101.389V23.04C101.389 23.52 101.309 23.84 101.149 24C101.015 24.1333 100.709 24.2 100.229 24.2H98.1888C97.7087 24.2 97.3887 24.1333 97.2288 24C97.0687 23.84 96.9888 23.52 96.9888 23.04V5.95999C96.9888 5.47999 97.0687 5.17333 97.2288 5.03999C97.3887 4.87999 97.7087 4.79999 98.1888 4.79999H100.229C100.709 4.79999 101.015 4.87999 101.149 5.03999C101.309 5.17333 101.389 5.47999 101.389 5.95999V9.79999ZM121.147 1.95999H117.547V13.08H112.227V1.95999H108.627V27H112.227V16H117.547V27H121.147V1.95999ZM133.307 1.95999H128.867C126.36 1.95999 125.107 3.13332 125.107 5.47999V23.48C125.107 25.8267 126.36 27 128.867 27H133.307C135.787 27 137.027 25.8267 137.027 23.48V5.47999C137.027 3.13332 135.787 1.95999 133.307 1.95999ZM133.427 6.03999V22.92C133.427 23.4 133.347 23.72 133.187 23.88C133.027 24.0133 132.707 24.08 132.227 24.08H129.907C129.427 24.08 129.107 24.0133 128.947 23.88C128.813 23.72 128.747 23.4 128.747 22.92V6.03999C128.747 5.55999 128.813 5.25332 128.947 5.11999C129.107 4.95999 129.427 4.87999 129.907 4.87999H132.227C132.707 4.87999 133.027 4.95999 133.187 5.11999C133.347 5.25332 133.427 5.55999 133.427 6.03999ZM152.85 1.95999H149.21V22.92C149.21 23.4 149.13 23.72 148.97 23.88C148.836 24.0133 148.516 24.08 148.01 24.08H145.73C145.25 24.08 144.93 24.0133 144.77 23.88C144.61 23.72 144.53 23.4 144.53 22.92V1.95999H140.89V23.48C140.89 25.8267 142.143 27 144.65 27H149.09C151.596 27 152.85 25.8267 152.85 23.48V1.95999ZM160.508 27V16.88H162.468L166.228 27H170.108L166.148 16.8C167.935 16.5067 168.828 15.3467 168.828 13.32V5.47999C168.828 3.13332 167.588 1.95999 165.108 1.95999H156.908V27H160.508ZM160.508 14V4.87999H164.028C164.508 4.87999 164.828 4.95999 164.988 5.11999C165.148 5.25332 165.228 5.55999 165.228 6.03999V12.84C165.228 13.32 165.148 13.64 164.988 13.8C164.828 13.9333 164.508 14 164.028 14H160.508Z" fill="white"/>
</svg>
